<?xml version="1.0" encoding="UTF-8" standalone="no"?>
<!-- Generator: Adobe Illustrator 18.1.1, SVG Export Plug-In . SVG Version: 6.00 Build 0)  -->

<svg
   xmlns:dc="http://purl.org/dc/elements/1.1/"
   xmlns:cc="http://creativecommons.org/ns#"
   xmlns:rdf="http://www.w3.org/1999/02/22-rdf-syntax-ns#"
   xmlns:svg="http://www.w3.org/2000/svg"
   xmlns="http://www.w3.org/2000/svg"
   xmlns:sodipodi="http://sodipodi.sourceforge.net/DTD/sodipodi-0.dtd"
   xmlns:inkscape="http://www.inkscape.org/namespaces/inkscape"
   version="1.1"
   id="Capa_1"
   x="0px"
   y="0px"
   viewBox="0 0 47.818281 47.818281"
   xml:space="preserve"
   width="40"
   height="40"
   inkscape:version="0.91 r13725"
   sodipodi:docname="circular-right-arrow-button.svg"><metadata
     id="metadata41"><rdf:RDF><cc:Work
         rdf:about=""><dc:format>image/svg+xml</dc:format><dc:type
           rdf:resource="http://purl.org/dc/dcmitype/StillImage" /><dc:title></dc:title></cc:Work></rdf:RDF></metadata><defs
     id="defs39" /><sodipodi:namedview
     pagecolor="#060606"
     bordercolor="#666666"
     borderopacity="1"
     objecttolerance="10"
     gridtolerance="10"
     guidetolerance="10"
     inkscape:pageopacity="0"
     inkscape:pageshadow="2"
     inkscape:window-width="1280"
     inkscape:window-height="1002"
     id="namedview37"
     showgrid="false"
     inkscape:zoom="3.6875"
     inkscape:cx="54.372882"
     inkscape:cy="-18.305085"
     inkscape:window-x="-8"
     inkscape:window-y="-8"
     inkscape:window-maximized="1"
     inkscape:current-layer="Capa_1" /><g
     id="g3"
     transform="matrix(0,-0.078125,0.078125,0,-2.225e-5,47.818291)"><path
       d="M 306.037,0 C 136.997,0 0,136.997 0,306.037 c 0,169.04 136.997,306.037 306.037,306.037 169.04,0 306.037,-136.997 306.037,-306.037 C 612.074,136.997 475.077,0 306.037,0 Z m 0,582.405 c -152.203,0 -276.368,-124.165 -276.368,-276.368 0,-152.203 124.165,-276.368 276.368,-276.368 152.203,0 276.368,124.165 276.368,276.368 0,152.203 -124.165,276.368 -276.368,276.368 z M 425.381,315.68 c 5.637,5.637 5.637,15.205 0,20.843 l -108.96,109.702 c -0.816,0.816 -1.632,1.632 -2.374,1.632 l -0.816,0.816 c -0.816,0 -0.816,0.816 -1.632,0.816 -0.816,0 -0.816,0 -1.632,0.816 -0.816,0 -0.816,0 -1.632,0 -0.816,0 -1.632,0 -3.189,0 -0.816,0 -1.632,0 -3.189,0 -0.816,0 -0.816,0 -1.632,0 -0.816,0 -0.816,0 -1.632,-0.816 -0.816,0 -0.816,-0.816 -1.632,-0.816 0,0 -0.816,0 -0.816,-0.816 -0.816,-0.816 -1.632,-0.816 -2.374,-1.632 L 185.877,335.706 c -5.637,-5.637 -5.637,-15.205 0,-20.843 5.637,-5.638 15.205,-5.637 20.843,0 l 84.928,84.928 0,-234.756 c 0,-8.011 6.379,-14.39 14.39,-14.39 8.011,0 14.39,6.379 14.39,14.39 l 0,234.683 83.37,-83.296 c 6.378,-6.38 16.02,-6.38 21.583,-0.742 z"
       id="path5"
       inkscape:connector-curvature="0"
       style="fill:#ffffff" /></g><g
     id="g7"
     transform="translate(0,-564.25571)" /><g
     id="g9"
     transform="translate(0,-564.25571)" /><g
     id="g11"
     transform="translate(0,-564.25571)" /><g
     id="g13"
     transform="translate(0,-564.25571)" /><g
     id="g15"
     transform="translate(0,-564.25571)" /><g
     id="g17"
     transform="translate(0,-564.25571)" /><g
     id="g19"
     transform="translate(0,-564.25571)" /><g
     id="g21"
     transform="translate(0,-564.25571)" /><g
     id="g23"
     transform="translate(0,-564.25571)" /><g
     id="g25"
     transform="translate(0,-564.25571)" /><g
     id="g27"
     transform="translate(0,-564.25571)" /><g
     id="g29"
     transform="translate(0,-564.25571)" /><g
     id="g31"
     transform="translate(0,-564.25571)" /><g
     id="g33"
     transform="translate(0,-564.25571)" /><g
     id="g35"
     transform="translate(0,-564.25571)" /></svg>