<?xml version="1.0" encoding="UTF-8" standalone="no"?>
<!-- Created with Inkscape (http://www.inkscape.org/) -->

<svg
   xmlns:dc="http://purl.org/dc/elements/1.1/"
   xmlns:cc="http://creativecommons.org/ns#"
   xmlns:rdf="http://www.w3.org/1999/02/22-rdf-syntax-ns#"
   xmlns:svg="http://www.w3.org/2000/svg"
   xmlns="http://www.w3.org/2000/svg"
   xmlns:sodipodi="http://sodipodi.sourceforge.net/DTD/sodipodi-0.dtd"
   xmlns:inkscape="http://www.inkscape.org/namespaces/inkscape"
   width="66mm"
   height="61mm"
   viewBox="0 0 233.85812 216.14174"
   id="svg2"
   version="1.1"
   inkscape:version="0.91 r13725"
   sodipodi:docname="davebo.svg">
  <defs
     id="defs4" />
  <sodipodi:namedview
     id="base"
     pagecolor="#ffffff"
     bordercolor="#666666"
     borderopacity="1.0"
     inkscape:pageopacity="0.0"
     inkscape:pageshadow="2"
     inkscape:zoom="1.4"
     inkscape:cx="419.28876"
     inkscape:cy="130.74346"
     inkscape:document-units="px"
     inkscape:current-layer="layer1"
     showgrid="false"
     inkscape:window-width="1366"
     inkscape:window-height="716"
     inkscape:window-x="1272"
     inkscape:window-y="162"
     inkscape:window-maximized="1" />
  <metadata
     id="metadata7">
    <rdf:RDF>
      <cc:Work
         rdf:about="">
        <dc:format>image/svg+xml</dc:format>
        <dc:type
           rdf:resource="http://purl.org/dc/dcmitype/StillImage" />
        <dc:title></dc:title>
      </cc:Work>
    </rdf:RDF>
  </metadata>
  <g
     inkscape:label="Layer 1"
     inkscape:groupmode="layer"
     id="layer1"
     transform="translate(0,-836.22087)">
    <g
       id="g3338"
       transform="translate(-2.1402588,826.87234)"
       style="fill:#ffffff">
      <path
         inkscape:connector-curvature="0"
         id="path3340"
         style="fill:#ffffff;fill-rule:evenodd"
         d="m 120.7465,14.1048 32.8657,69.5543 32.961,-69.2826 45.0672,0 0,13.4536 -36.4885,0.0429 -14.6326,32.2444 10.1963,0 -6.1047,13.4567 -10.209,0.0429 -20.116,44.3474 -11.6041,-22.8696 -44.2266,0 -9.4177,22.8696 -16.1436,0 47.8526,-103.8596 z m 0.2685,31.6676 -17.178,35.8688 32.3953,0.0175 -15.2173,-35.8863 z" />
      <path
         inkscape:connector-curvature="0"
         id="path3342"
         style="fill:#ffffff;fill-rule:evenodd"
         d="m 164.3757,117.9644 6.1571,-13.355 61.1076,-0.097 0,13.452 -67.2647,0 z" />
      <path
         inkscape:connector-curvature="0"
         id="path3344"
         style="fill:#ffffff;fill-rule:evenodd"
         d="m 174.8357,210.5648 13.4536,0 0,13.4536 -13.4536,0 0,-13.4536 z" />
      <path
         inkscape:connector-curvature="0"
         id="path3346"
         style="fill:#ffffff;fill-rule:evenodd"
         d="m 119.6438,119.3103 c 15.1601,0 27.8287,4.9479 38.0059,14.8073 10.1756,9.8944 15.2634,22.1785 15.2634,36.8873 0,14.7073 -5.0878,27.0247 -15.2634,36.9858 -10.1772,9.9262 -22.8458,14.9075 -38.0059,14.9075 -15.2984,0 -28.0369,-4.948 -38.2125,-14.809 -10.1756,-9.8927 -15.265,-22.2436 -15.265,-37.0843 0,-14.7088 5.1228,-26.9929 15.3683,-36.8873 10.2423,-9.8594 22.9459,-14.8073 38.1092,-14.8073 z m 0,11.952 c -11.7471,0 -21.5477,3.7848 -29.4018,11.3228 -7.8558,7.5697 -11.782,17.0319 -11.782,28.4198 0,11.388 3.9262,20.8835 11.782,28.5199 7.8541,7.6031 17.6547,11.4198 29.4018,11.4198 11.747,0 21.5127,-3.8167 29.2985,-11.4198 7.7858,-7.6364 11.6787,-17.1319 11.6787,-28.5199 0,-11.2561 -3.9279,-20.6848 -11.782,-28.3213 -7.8542,-7.6031 -17.5864,-11.4213 -29.1952,-11.4213 z" />
      <path
         inkscape:connector-curvature="0"
         id="path3348"
         style="fill:#ffffff;fill-rule:evenodd"
         d="m 72.4601,63.2968 c 0,-6.2318 -0.947,-11.5802 -2.8204,-16.0737 C 67.768,42.7296 65.0763,39.0114 61.587,36.0687 58.1263,33.1546 53.8695,30.9873 48.8182,29.624 43.7908,28.2321 38.1231,27.5377 31.7911,27.5377 l -11.4896,0 0,75.2634 10.1549,0 c 6.4114,0 12.2079,-0.9358 17.3862,-2.7806 5.18,-1.8464 9.6163,-4.4935 13.2566,-7.9177 3.6688,-3.4226 6.4892,-7.5697 8.4373,-12.4637 1.9496,-4.8939 2.9236,-10.3503 2.9236,-16.3423 z m 15.2316,-0.1604 c 0,7.8907 -1.384,15.0584 -4.1789,21.5572 -2.7695,6.4733 -6.6672,12.0092 -11.6676,16.6362 -5.0004,4.6286 -10.9748,8.2116 -17.9503,10.6999 -6.9484,2.5137 -14.6167,3.7706 -22.9761,3.7706 l -25.3865,0 0,-101.4222 26.5909,0 c 8.7964,0 16.6426,1.0423 23.5418,3.1032 6.8722,2.0592 12.6925,5.1339 17.4625,9.254 4.743,4.0915 8.3594,9.1729 10.8461,15.2713 2.4883,6.0984 3.7181,13.1326 3.7181,21.1298 z" />
      <path
         inkscape:connector-curvature="0"
         id="path3350"
         style="fill:#ffffff;fill-rule:evenodd"
         d="m 43.4205,147.2884 c 0,-1.8305 -0.2876,-3.5879 -0.8676,-5.2308 -0.5831,-1.6525 -1.5365,-3.1144 -2.8728,-4.3951 -5.1116,-4.8923 -13.3201,-4.9193 -19.8761,-4.3028 l 0,30.1359 c 12.2063,0 23.6165,-0.5117 23.6165,-16.2072 z m 6.7038,44.0137 c 0.0889,-5.3627 -1.7082,-9.3398 -5.1514,-11.8758 -6.4114,-4.8081 -17.3306,-3.8468 -25.1689,-3.8468 l 0,32.8037 c 14.0336,0.1939 30.039,0.035 30.3203,-17.0811 z m -17.4212,29.4224 c -14.4594,1.0583 -13.0055,0.5132 -27.2059,0.5132 l 0.0397,-99.5186 c 20.0398,-0.7023 52.4494,-3.3813 52.4494,24.4967 0,2.59 -0.3479,5.0513 -1.0153,7.325 -0.6689,2.2754 -1.616,4.341 -2.7981,6.2255 -1.1965,1.9068 -2.5979,3.591 -4.2377,5.0751 -1.6541,1.4968 -3.4433,2.6949 -5.3754,3.6879 34.7295,12.6401 24.1821,49.5576 -11.8567,52.1952 z" />
    </g>
  </g>
</svg>
