<?xml version="1.0" encoding="UTF-8" standalone="no"?>
<!-- Created with Inkscape (http://www.inkscape.org/) -->

<svg
   xmlns:dc="http://purl.org/dc/elements/1.1/"
   xmlns:cc="http://creativecommons.org/ns#"
   xmlns:rdf="http://www.w3.org/1999/02/22-rdf-syntax-ns#"
   xmlns:svg="http://www.w3.org/2000/svg"
   xmlns="http://www.w3.org/2000/svg"
   xmlns:sodipodi="http://sodipodi.sourceforge.net/DTD/sodipodi-0.dtd"
   xmlns:inkscape="http://www.inkscape.org/namespaces/inkscape"
   width="230"
   height="230"
   viewBox="0 0 230.00001 230"
   id="svg2"
   version="1.1"
   inkscape:version="0.91 r13725"
   sodipodi:docname="speakerOn.svg">
  <defs
     id="defs4" />
  <sodipodi:namedview
     id="base"
     pagecolor="#ffffff"
     bordercolor="#666666"
     borderopacity="1.0"
     inkscape:pageopacity="0.0"
     inkscape:pageshadow="2"
     inkscape:zoom="0.98994949"
     inkscape:cx="213.56809"
     inkscape:cy="-9.3752039"
     inkscape:document-units="px"
     inkscape:current-layer="layer1"
     showgrid="false"
     inkscape:window-width="1280"
     inkscape:window-height="1002"
     inkscape:window-x="-8"
     inkscape:window-y="-8"
     inkscape:window-maximized="1"
     units="px" />
  <metadata
     id="metadata7">
    <rdf:RDF>
      <cc:Work
         rdf:about="">
        <dc:format>image/svg+xml</dc:format>
        <dc:type
           rdf:resource="http://purl.org/dc/dcmitype/StillImage" />
        <dc:title></dc:title>
      </cc:Work>
    </rdf:RDF>
  </metadata>
  <g
     inkscape:label="Layer 1"
     inkscape:groupmode="layer"
     id="layer1"
     transform="translate(0,-822.36208)">
    <path
       style="fill:#ffffff;fill-rule:evenodd;stroke:#ffffff;stroke-width:1px;stroke-linecap:butt;stroke-linejoin:miter;stroke-opacity:1"
       d="m 173.26148,852.85707 c -80.196503,-42.29462 -154.077779,8.87295 -158.593959,81.31728 -5.7930001,62.70503 59.047363,140.99385 163.644719,86.36805 3.6722,0.048 6.54316,1.0301 4.57107,7.6628 -54.81234,45.0357 -179.4481987,21.907 -179.5926987,-92.81149 3.14708,-86.89349 95.2412987,-137.79157 171.9911787,-94.65847 5.27184,8.28724 1.97269,10.45234 -2.02031,12.12183 z"
       id="path3347"
       inkscape:connector-curvature="0"
       sodipodi:nodetypes="ccccccc" />
    <path
       style="fill:#ffffff;fill-rule:evenodd;stroke:#ffffff;stroke-width:1px;stroke-linecap:butt;stroke-linejoin:miter;stroke-opacity:1"
       d="m 192.00653,1007.0765 c 42.72058,-52.60179 29.33815,-96.65809 0.71429,-138.39285 -0.33429,-5.7235 2.4785,-7.25088 7.85714,-5.35714 28.73215,35.6638 46.51032,96.57476 -2.14285,150.89289 -3.91254,0.354 -7.64558,0.4306 -6.42858,-7.1429 z"
       id="path3349"
       inkscape:connector-curvature="0"
       sodipodi:nodetypes="ccccc" />
    <path
       style="fill:#ffffff;fill-rule:evenodd;stroke:#ffffff;stroke-width:1px;stroke-linecap:butt;stroke-linejoin:miter;stroke-opacity:1"
       d="m 175.50559,991.77418 c 35.04879,-52.60178 21.3063,-79.15808 -1.07143,-108.74998 -0.99507,-6.60454 1.89091,-9.34386 8.03571,-6.42857 24.28579,28.76337 40.26076,70.4414 1e-5,122.49999 -4.39238,0.76594 -9.51399,1.62698 -6.96429,-7.32144 z"
       id="path3349-5"
       inkscape:connector-curvature="0"
       sodipodi:nodetypes="ccccc" />
    <path
       style="fill:#ffffff;fill-rule:evenodd;stroke:#ffffff;stroke-width:1px;stroke-linecap:butt;stroke-linejoin:miter;stroke-opacity:1"
       d="m 153.54131,971.59561 c 27.02407,-31.49923 9.85429,-57.42342 0.17857,-68.03569 -0.0705,-6.04743 1.83399,-8.07251 7.5,-5.53572 19.52782,19.86806 23.44373,57.68229 -1.07142,79.82141 -3.91254,0.354 -7.82415,1.32346 -6.60715,-6.25 z"
       id="path3349-0"
       inkscape:connector-curvature="0"
       sodipodi:nodetypes="ccccc" />
    <path
       style="fill:none;fill-rule:evenodd;stroke:#ffffff;stroke-width:9.19999981;stroke-linecap:butt;stroke-linejoin:miter;stroke-miterlimit:4;stroke-dasharray:none;stroke-opacity:1"
       d="m 133.86553,900.83932 -0.50507,72.2259 -23.73859,-20.20305 -24.748753,0.50508 0.50509,-34.3452 23.738583,0 z"
       id="path3372"
       inkscape:connector-curvature="0"
       sodipodi:nodetypes="ccccccc" />
  </g>
</svg>
